<svg xmlns="http://www.w3.org/2000/svg" viewBox="0 0 512 512">
  <defs>
    <linearGradient id="grad1" x1="0%" y1="0%" x2="100%" y2="100%">
      <stop offset="0%" style="stop-color:#3b82f6;stop-opacity:1" />
      <stop offset="100%" style="stop-color:#1d4ed8;stop-opacity:1" />
    </linearGradient>
  </defs>
  <rect x="32" y="32" width="448" height="448" rx="120" ry="120" fill="url(#grad1)" />
  <path d="M170 130 h80 c60 0 90 40 90 90 c0 30-20 60-50 75 c40 10 70 45 70 85 c0 60-40 100-100 100 H170 V130 z m60 60 v90 h20 c30 0 50-20 50-45 c0-25-20-45-50-45 h-20 z m0 150 v100 h30 c35 0 60-25 60-50 c0-30-25-50-60-50 h-30 z" fill="white" />
</svg>